<?xml version="1.0" encoding="UTF-8"?>
<!DOCTYPE svg PUBLIC "-//W3C//DTD SVG 1.1//EN" "http://www.w3.org/Graphics/SVG/1.1/DTD/svg11.dtd">
<!-- Creator: CorelDRAW 2018 (64-Bit) -->
<svg xmlns="http://www.w3.org/2000/svg" xml:space="preserve" width="210mm" height="297mm" version="1.1" style="shape-rendering:geometricPrecision; text-rendering:geometricPrecision; image-rendering:optimizeQuality; fill-rule:evenodd; clip-rule:evenodd"
viewBox="0 0 21000 29700"
 xmlns:xlink="http://www.w3.org/1999/xlink">
 <defs>
  <style type="text/css">
   <![CDATA[
    .str0 {stroke:#D53E41;stroke-width:20;stroke-miterlimit:22.9256}
    .fil2 {fill:none}
    .fil1 {fill:#D53E41}
    .fil0 {fill:#D53E41}
   ]]>
  </style>
 </defs>
 <g id="Layer_x0020_1">
  <metadata id="CorelCorpID_0Corel-Layer"/>
  <path class="fil0 str0" d="M19687.5 23643.75c-1.13,0 -2.46,0 -3.52,0 -225.96,0 -446.6,-70.49 -630.81,-201.22l-10513.17 -7494.4c-287.5,-205.32 -458.42,-537.01 -458.42,-890.33 0,-353.31 170.92,-685 458.41,-890.24l10526.26 -7490.06c185.16,-131.81 407.09,-202.85 634.49,-202.85 597.82,0 1084.94,480.18 1093.62,1077.86l0.02 14997.49c0,-0.06 0,0.07 0,0.07 0,603.96 -489.79,1093.75 -1093.75,1093.75 -4.27,0 -8.95,-0.13 -13.09,-0.13l-0.04 0.06zm0 -16734.38c0.01,0 -0.23,0 -0.23,0 -136.49,0 -269.63,42.9 -380.42,122.48l-10513.1 7490.02c-172.21,123.15 -274.44,322.01 -274.44,533.75 0,211.75 102.23,410.61 274.41,533.75l10526.28 7494.38c111.03,79.11 244.27,121.65 380.63,121.65 362.06,0 655.77,-293.31 656.25,-655.37l-0.01 -14984.41c0.02,-3.59 0.1,-7.38 0.1,-11.02 0,-245.61 -138.97,-470.11 -358.81,-579.6 -89.73,-43.36 -188.21,-66.02 -287.9,-66.02 -7.58,0 -15.24,0.16 -22.74,0.4l-0.02 -0.01z"/>
  <path class="fil1" d="M11812.5 23643.75c-0.66,-0.01 -1.46,-0.01 -2.13,-0.01 -226.47,0 -447.59,-70.37 -632.27,-201.23l-10499.98 -7494.38c-287.49,-205.32 -458.41,-537.01 -458.41,-890.33 0,-353.31 170.92,-685 458.41,-890.24l10521.88 -7490.06c189.16,-141.97 419.63,-218.75 656.25,-218.75 603.96,0 1093.75,489.79 1093.75,1093.75l0 3902.5c0,120.79 -97.96,218.75 -218.75,218.75 -120.79,0 -218.75,-97.96 -218.75,-218.75l0 -3889.38c-0.48,-362.09 -294.19,-655.4 -656.25,-655.4 -136.36,0 -269.6,42.54 -380.64,121.62l-10543.74 7490.03c-172.2,123.15 -274.43,322.01 -274.43,533.75 0,211.75 102.23,410.61 274.41,533.75l10521.9 7494.38c111.03,79.11 244.27,121.65 380.63,121.65 362.06,0 655.77,-293.31 656.25,-655.37l0 -3902.53c0,-120.8 97.96,-218.76 218.75,-218.76 120.79,0 218.75,97.96 218.75,218.75l0 3902.51c0,-0.06 0,0.21 0,0.21 0,603.96 -489.79,1093.75 -1093.75,1093.75 -7.21,0 -14.82,-0.13 -21.9,-0.27l0.02 0.06z"/>
  <rect class="fil2" y="4350" width="21000" height="21000"/>
 </g>
</svg>
