<?xml version="1.0" encoding="UTF-8"?>
<!DOCTYPE svg PUBLIC "-//W3C//DTD SVG 1.1//EN" "http://www.w3.org/Graphics/SVG/1.1/DTD/svg11.dtd">
<!-- Creator: CorelDRAW 2018 (64-Bit) -->
<svg xmlns="http://www.w3.org/2000/svg" xml:space="preserve" width="42.875mm" height="42.8753mm" version="1.1" style="shape-rendering:geometricPrecision; text-rendering:geometricPrecision; image-rendering:optimizeQuality; fill-rule:evenodd; clip-rule:evenodd"
viewBox="0 0 1084.27 1084.28"
 xmlns:xlink="http://www.w3.org/1999/xlink">
 <defs>
  <style type="text/css">
   <![CDATA[
    .fil0 {fill:#B2B3B3;fill-rule:nonzero}
    .fil1 {fill:#F0F2F2;fill-rule:nonzero}
   ]]>
  </style>
 </defs>
 <g id="Layer_x0020_1">
  <metadata id="CorelCorpID_0Corel-Layer"/>
  <path class="fil0" d="M-0 542.13c0,-299.41 242.72,-542.13 542.13,-542.13 299.42,0 542.14,242.72 542.14,542.13 0,299.41 -242.72,542.14 -542.14,542.14 -299.41,0 -542.13,-242.73 -542.13,-542.14z"/>
  <path class="fil1" d="M742.35 575.72l-106.94 0 0 331.04 -153.75 0 0 -331.04 -96.35 0 0 -129.13 101.32 0 0 -93.21c0,-66.65 28.14,-171.02 150.29,-171.02l125.54 0.53 0 118.05 -91.1 0c-14.94,0 -35.96,9.36 -35.96,41.15l0 104.63 121.73 0 -14.8 128.99z"/>
 </g>
</svg>
