<?xml version="1.0" encoding="UTF-8"?>
<!DOCTYPE svg PUBLIC "-//W3C//DTD SVG 1.1//EN" "http://www.w3.org/Graphics/SVG/1.1/DTD/svg11.dtd">
<!-- Creator: CorelDRAW 2018 (64-Bit) -->
<svg xmlns="http://www.w3.org/2000/svg" xml:space="preserve" width="210mm" height="297mm" version="1.1" style="shape-rendering:geometricPrecision; text-rendering:geometricPrecision; image-rendering:optimizeQuality; fill-rule:evenodd; clip-rule:evenodd"
viewBox="0 0 21000 29700"
 xmlns:xlink="http://www.w3.org/1999/xlink">
 <defs>
  <style type="text/css">
   <![CDATA[
    .fil2 {fill:none}
    .fil1 {fill:#D53E41}
    .fil0 {fill:#D53E41}
   ]]>
  </style>
 </defs>
 <g id="Layer_x0020_1">
  <metadata id="CorelCorpID_0Corel-Layer"/>
  <path class="fil0" d="M1312.5 23433.75c-603.95,-0.01 -1093.74,-489.8 -1093.74,-1093.76l-0.01 -14979.99c0.01,-603.96 489.8,-1093.75 1093.76,-1093.75 236.62,0 467.09,76.78 656.3,218.72l10495.57 7490.03c287.5,205.3 458.42,536.99 458.42,890.3 0,353.32 -170.92,685.01 -458.41,890.25l-10521.89 7476.95c-183.97,130.63 -404.35,201.12 -630.04,201.25l0.04 0zm0 -16734.38c-105.08,0.39 -208.64,25.96 -301.88,74.35 -217.39,110.36 -354.38,333.6 -354.38,577.39 0,1.5 0,3 0,4.51l0.01 14984.38c0.49,362.09 294.2,655.4 656.26,655.4 136.36,0 269.6,-42.54 380.64,-121.62l10517.48 -7490.03c172.21,-123.15 274.44,-322.01 274.44,-533.75 0,-211.75 -102.23,-410.61 -274.41,-533.75l-10521.91 -7490c-109.08,-80.32 -240.79,-124.81 -376.24,-126.88l-0.01 0z"/>
  <path class="fil1" d="M9187.5 23433.75c-603.95,-0.01 -1093.74,-489.8 -1093.74,-1093.76l-0.01 -3902.49c0.01,-120.8 97.97,-218.76 218.76,-218.76 120.79,0 218.75,97.96 218.75,218.75l0 3902.5c0.48,362.1 294.19,655.41 656.25,655.41 136.36,0 269.6,-42.54 380.64,-121.62l10504.35 -7490.03c172.22,-123.15 274.45,-322.01 274.45,-533.75 0,-211.75 -102.23,-410.61 -274.41,-533.75l-10521.92 -7490c-111.01,-79.12 -244.25,-121.66 -380.61,-121.66 -362.06,0 -655.77,293.31 -656.25,655.37l-0.01 3902.54c0.01,120.79 -97.95,218.75 -218.74,218.75 -120.79,0 -218.75,-97.96 -218.75,-218.75l-0.01 -3902.5c8.7,-597.67 495.82,-1077.85 1093.64,-1077.85 227.4,0 449.33,71.04 634.54,202.83l10521.82 7490.02c287.51,205.3 458.43,536.99 458.43,890.3 0,353.32 -170.92,685.01 -458.41,890.25l-10521.9 7476.95c-180.37,128.06 -395.69,198.41 -616.86,201.21l-0.01 0.04z"/>
  <rect class="fil2" y="4350" width="21000" height="21000"/>
 </g>
</svg>
