<?xml version="1.0" encoding="UTF-8"?>
<!DOCTYPE svg PUBLIC "-//W3C//DTD SVG 1.1//EN" "http://www.w3.org/Graphics/SVG/1.1/DTD/svg11.dtd">
<!-- Creator: CorelDRAW 2018 (64-Bit) -->
<svg xmlns="http://www.w3.org/2000/svg" xml:space="preserve" width="166.25mm" height="122.5mm" version="1.1" style="shape-rendering:geometricPrecision; text-rendering:geometricPrecision; image-rendering:optimizeQuality; fill-rule:evenodd; clip-rule:evenodd"
viewBox="0 0 16625 12250.01"
 xmlns:xlink="http://www.w3.org/1999/xlink">
 <defs>
  <style type="text/css">
   <![CDATA[
    .fil0 {fill:#5A009D}
   ]]>
  </style>
 </defs>
 <g id="Layer_x0020_1">
  <metadata id="CorelCorpID_0Corel-Layer"/>
  <path class="fil0" d="M15750 1750l-14875.01 0c-483.16,0 -874.99,-391.83 -874.99,-875 0,-483.17 391.83,-875 875,-875l14875 0c483.17,0 875,391.83 875,875 0,483.17 -391.83,875 -875,875z"/>
  <path class="fil0" d="M15750 7000l-14875.01 0c-483.16,-0.01 -874.99,-391.84 -874.99,-875 0,-483.17 391.83,-875 875,-875l14875 0c483.17,0 875,391.83 875,875 0,483.16 -391.83,874.99 -875,874.99l0 0.01z"/>
  <path class="fil0" d="M15750 12250.01l-14875.01 0c-483.16,-0.01 -874.99,-391.84 -874.99,-875.01 0,-483.17 391.83,-875 875,-875l14875 0.01c483.17,-0.01 875,391.82 875,874.99 0,483.17 -391.83,875 -875,875l0 0.01z"/>
 </g>
</svg>
