<?xml version="1.0" encoding="UTF-8"?>
<!DOCTYPE svg PUBLIC "-//W3C//DTD SVG 1.1//EN" "http://www.w3.org/Graphics/SVG/1.1/DTD/svg11.dtd">
<!-- Creator: CorelDRAW 2018 (64-Bit) -->
<svg xmlns="http://www.w3.org/2000/svg" xml:space="preserve" width="210mm" height="297mm" version="1.1" style="shape-rendering:geometricPrecision; text-rendering:geometricPrecision; image-rendering:optimizeQuality; fill-rule:evenodd; clip-rule:evenodd"
viewBox="0 0 21000 29700"
 xmlns:xlink="http://www.w3.org/1999/xlink">
 <defs>
  <style type="text/css">
   <![CDATA[
    .fil1 {fill:none}
    .fil0 {fill:#D53E41}
   ]]>
  </style>
 </defs>
 <g id="Layer_x0020_1">
  <metadata id="CorelCorpID_0Corel-Layer"/>
  <path class="fil0" d="M4068.75 25087.5c-185.42,-0.92 -367.69,-49.26 -529.4,-140.06 -347.75,-188.99 -564.38,-553.38 -564.38,-949.3 0,-2.9 0,-5.8 0,-8.71l0.03 -18278.81c1.61,-602.7 491,-1090.75 1093.76,-1090.75 205.77,0 407.8,58.22 581.93,167.58l14599.31 9135.05 0 0c319.65,199.76 514.07,550.41 514.07,927.5 0,377.08 -194.42,727.73 -514.09,927.49l-14599.36 9135.01c-173.28,112.27 -375.3,173.18 -581.85,175.04l-0.02 -0.04zm581.87 -20208.13c-111.78,0 -221.78,28.76 -319.36,83.16 -91.03,-46.53 -192.06,-70.8 -294.35,-70.8 -357.54,0 -647.5,289.96 -647.5,647.5 0,57.86 7.83,115.65 23.08,171.38l0.01 18278.77c0.01,0.16 0.01,0.32 0.01,0.48 0,362.38 293.87,656.25 656.25,656.25 123.86,0 245.32,-35.09 350.04,-101.11l14612.5 -9139.38c190.98,-120.03 306.99,-330.02 306.99,-555.62 0,-225.61 -116.01,-435.6 -307.01,-555.62l-14612.53 -9139.38c-104.52,-65.7 -225.66,-100.63 -349.2,-100.63 -0.24,0 -0.56,0 -0.8,0l581.87 -175z"/>
  <rect class="fil1" y="4350" width="21000" height="21000"/>
 </g>
</svg>
