<?xml version="1.0" encoding="UTF-8"?>
<!DOCTYPE svg PUBLIC "-//W3C//DTD SVG 1.1//EN" "http://www.w3.org/Graphics/SVG/1.1/DTD/svg11.dtd">
<!-- Creator: CorelDRAW 2018 (64-Bit) -->
<svg xmlns="http://www.w3.org/2000/svg" xml:space="preserve" width="210mm" height="297mm" version="1.1" style="shape-rendering:geometricPrecision; text-rendering:geometricPrecision; image-rendering:optimizeQuality; fill-rule:evenodd; clip-rule:evenodd"
viewBox="0 0 21000 29700"
 xmlns:xlink="http://www.w3.org/1999/xlink">
 <defs>
  <style type="text/css">
   <![CDATA[
    .fil1 {fill:none}
    .fil0 {fill:#E41B43}
   ]]>
  </style>
 </defs>
 <g id="Layer_x0020_1">
  <metadata id="CorelCorpID_0Corel-Layer"/>
  <path class="fil0" d="M10500 25350c-5798,-0.01 -10499.99,-4702 -10499.99,-10500 0,-5798.01 4701.99,-10500 10499.99,-10500 5798.01,0 10500,4701.99 10500,10500 0,5798 -4701.99,10499.99 -10500,10499.99l0 0.01zm0 -20562.5c-5556.42,0 -10062.49,4506.07 -10062.49,10062.5 0,5556.42 4506.07,10062.49 10062.49,10062.49 5556.43,0 10062.5,-4506.07 10062.5,-10062.49 0,-5556.43 -4506.07,-10062.5 -10062.5,-10062.5z"/>
  <path class="fil0" d="M13781.25 15068.75l-6562.5 0c-120.78,-0.01 -218.74,-97.97 -218.74,-218.75 0,-120.79 97.96,-218.75 218.75,-218.75l6562.49 0c120.79,0 218.75,97.96 218.75,218.75 0,120.78 -97.96,218.74 -218.75,218.74l0 0.01z"/>
  <path class="fil0" d="M10500 18350c-120.78,-0.01 -218.74,-97.97 -218.74,-218.76l0 -6562.5c0,-120.78 97.96,-218.74 218.74,-218.74 120.79,0 218.75,97.96 218.75,218.75l0 6562.5c0,120.78 -97.96,218.74 -218.75,218.74l0 0.01z"/>
  <rect class="fil1" y="4350" width="21000" height="21000"/>
 </g>
</svg>
