<?xml version="1.0" encoding="UTF-8"?>
<!DOCTYPE svg PUBLIC "-//W3C//DTD SVG 1.1//EN" "http://www.w3.org/Graphics/SVG/1.1/DTD/svg11.dtd">
<!-- Creator: CorelDRAW 2018 (64-Bit) -->
<svg xmlns="http://www.w3.org/2000/svg" xml:space="preserve" width="210mm" height="297mm" version="1.1" style="shape-rendering:geometricPrecision; text-rendering:geometricPrecision; image-rendering:optimizeQuality; fill-rule:evenodd; clip-rule:evenodd"
viewBox="0 0 21000 29700"
 xmlns:xlink="http://www.w3.org/1999/xlink">
 <defs>
  <style type="text/css">
   <![CDATA[
    .fil1 {fill:none}
    .fil0 {fill:#D53E41}
   ]]>
  </style>
 </defs>
 <g id="Layer_x0020_1">
  <metadata id="CorelCorpID_0Corel-Layer"/>
  <path class="fil0" d="M20343.75 15068.75l-5687.5 0c-120.79,-0.01 -218.75,-97.97 -218.75,-218.75 0,-120.79 97.96,-218.75 218.75,-218.75l5687.5 0c120.79,0 218.75,97.96 218.75,218.75 0,120.78 -97.96,218.74 -218.75,218.74l0 0.01z"/>
  <path class="fil0" d="M10710 25083.13c-303.53,-0.01 -593.12,-128.91 -796.22,-354.38l-6076.91 -6597.5 -555.62 0c-0.33,-0.01 -1.13,-0.01 -1.53,-0.01 -1811.88,0 -3281.25,-1469.37 -3281.25,-3281.24 0,-33.25 0.8,-67.7 1.6,-100.55 101.52,-1785.33 1579.5,-3180.95 3367.58,-3180.95 13.18,0 27.59,0.41 40.36,0.41l437.61 -0.16 6068.13 -6593.13c206.93,-225.11 499.09,-353.3 805,-353.3 603.56,0 1093.22,489.12 1093.75,1092.68l0 18270c-0.01,4.92 0.12,10.55 0.12,15.65 0,446.89 -277.42,846.93 -695.79,1003.7 -129.5,51.3 -267.46,78.1 -406.8,78.78l-0.03 0zm-7301.88 -13076.88c-14.15,0.02 -29.9,-0.34 -44.57,-0.34 -1550.98,0 -2833.55,1208.5 -2925.88,2756.61 -0.82,28.81 -1.51,58.32 -1.51,87.48 0,1570.28 1273.46,2843.74 2843.75,2843.74 0.35,0 1.04,0 1.39,0l656.2 0.01c0.5,-0.02 1.01,-0.02 1.49,-0.02 60.86,0 119.03,25.37 160.4,70l6125 6663.13c124.13,133.96 298.62,210.15 481.29,210.15 359.01,0 651.52,-288.75 656.17,-647.68l0.03 -18274.33c-4.68,-358.9 -297.19,-647.65 -656.2,-647.65 -182.67,0 -357.16,76.19 -481.26,210.15l-6125 6663.13c-41.16,42 -97.51,65.69 -156.32,65.69 -1.84,0 -3.77,-0.05 -5.58,-0.08l-529.4 0.01z"/>
  <rect class="fil1" y="4350" width="21000" height="21000"/>
 </g>
</svg>
