<?xml version="1.0" encoding="UTF-8"?>
<!DOCTYPE svg PUBLIC "-//W3C//DTD SVG 1.1//EN" "http://www.w3.org/Graphics/SVG/1.1/DTD/svg11.dtd">
<!-- Creator: CorelDRAW 2018 (64-Bit) -->
<svg xmlns="http://www.w3.org/2000/svg" xml:space="preserve" width="42.875mm" height="42.8751mm" version="1.1" style="shape-rendering:geometricPrecision; text-rendering:geometricPrecision; image-rendering:optimizeQuality; fill-rule:evenodd; clip-rule:evenodd"
viewBox="0 0 4100.05 4100.06"
 xmlns:xlink="http://www.w3.org/1999/xlink">
 <defs>
  <style type="text/css">
   <![CDATA[
    .fil0 {fill:#B2B3B3;fill-rule:nonzero}
    .fil3 {fill:#B5CFE4;fill-rule:nonzero}
    .fil2 {fill:#D1E4F0;fill-rule:nonzero}
    .fil1 {fill:white;fill-rule:nonzero}
   ]]>
  </style>
 </defs>
 <g id="Layer_x0020_1">
  <metadata id="CorelCorpID_0Corel-Layer"/>
  <path class="fil0" d="M4100.05 2050.03c0,1132.2 -917.83,2050.03 -2050.03,2050.03 -1132.2,0 -2050.02,-917.83 -2050.02,-2050.03 0,-1132.21 917.82,-2050.03 2050.02,-2050.03 1132.21,0 2050.03,917.83 2050.03,2050.03z"/>
  <g id="_1463399072320">
   <path class="fil1" d="M3047.53 1179.27l-366.15 1846.1c0,0 -51.22,128.02 -192.04,66.57l-844.95 -647.8 -307.26 -148.49 -517.21 -174.13c0,0 -79.37,-28.16 -87.05,-89.6 -7.69,-61.45 89.61,-94.74 89.61,-94.74l2056.06 -806.56c0,0 168.99,-74.25 168.99,48.66z"/>
   <path class="fil2" d="M1579.44 3004.63c0,0 -24.67,-2.3 -55.39,-99.62 -30.73,-97.29 -186.92,-609.38 -186.92,-609.38l1241.83 -788.63c0,0 71.69,-43.52 69.13,0 0,0 12.8,7.68 -25.6,43.53 -38.4,35.85 -975.54,878.24 -975.54,878.24l-67.51 575.86z"/>
   <path class="fil3" d="M1968.37 2692.51l-334.22 304.73c0,0 -26.13,19.81 -54.71,7.39l63.99 -566 324.93 253.88z"/>
  </g>
 </g>
</svg>
