<?xml version="1.0" encoding="UTF-8"?>
<!DOCTYPE svg PUBLIC "-//W3C//DTD SVG 1.1//EN" "http://www.w3.org/Graphics/SVG/1.1/DTD/svg11.dtd">
<!-- Creator: CorelDRAW 2018 (64-Bit) -->
<svg xmlns="http://www.w3.org/2000/svg" xml:space="preserve" width="42.8749mm" height="42.8755mm" version="1.1" style="shape-rendering:geometricPrecision; text-rendering:geometricPrecision; image-rendering:optimizeQuality; fill-rule:evenodd; clip-rule:evenodd"
viewBox="0 0 710.03 710.04"
 xmlns:xlink="http://www.w3.org/1999/xlink">
 <defs>
  <style type="text/css">
   <![CDATA[
    .fil0 {fill:#B2B3B3;fill-rule:nonzero}
    .fil1 {fill:#F0F2F2;fill-rule:nonzero}
   ]]>
  </style>
 </defs>
 <g id="Layer_x0020_1">
  <metadata id="CorelCorpID_0Corel-Layer"/>
  <path class="fil0" d="M-0 355.01c0,-196.07 158.94,-355.01 355.01,-355.01 196.07,0 355.01,158.94 355.01,355.01 0,196.08 -158.94,355.02 -355.01,355.02 -196.07,0 -355.01,-158.94 -355.01,-355.02z"/>
  <g id="_1463398252320">
   <path class="fil1" d="M574.14 219.1c-16.12,7.15 -33.46,11.98 -51.64,14.15 18.56,-11.13 32.81,-28.73 39.54,-49.73 -17.37,10.31 -36.62,17.79 -57.1,21.81 -16.4,-17.47 -39.77,-28.39 -65.65,-28.39 -49.65,0 -89.91,40.26 -89.91,89.91 0,7.05 0.8,13.91 2.34,20.49 -74.72,-3.75 -140.97,-39.54 -185.32,-93.95 -7.74,13.28 -12.18,28.73 -12.18,45.21 0,31.18 15.88,58.72 40,74.84 -14.73,-0.47 -28.6,-4.51 -40.72,-11.26 -0.01,0.38 -0.01,0.77 -0.01,1.14 0,43.57 31.01,79.89 72.13,88.15 -7.54,2.06 -15.49,3.16 -23.68,3.16 -5.8,0 -11.43,-0.56 -16.92,-1.6 11.44,35.71 44.64,61.7 83.99,62.43 -30.78,24.12 -69.54,38.49 -111.67,38.49 -7.25,0 -14.42,-0.42 -21.44,-1.26 39.77,25.52 87.04,40.4 137.81,40.4 165.38,0 255.82,-137 255.82,-255.83 0,-3.9 -0.09,-7.78 -0.27,-11.63 17.58,-12.67 32.81,-28.51 44.87,-46.54z"/>
  </g>
 </g>
</svg>
