<?xml version="1.0" encoding="UTF-8"?>
<!DOCTYPE svg PUBLIC "-//W3C//DTD SVG 1.1//EN" "http://www.w3.org/Graphics/SVG/1.1/DTD/svg11.dtd">
<!-- Creator: CorelDRAW 2018 (64-Bit) -->
<svg xmlns="http://www.w3.org/2000/svg" xml:space="preserve" width="42.875mm" height="42.875mm" version="1.1" style="shape-rendering:geometricPrecision; text-rendering:geometricPrecision; image-rendering:optimizeQuality; fill-rule:evenodd; clip-rule:evenodd"
viewBox="0 0 2963.06 2963.06"
 xmlns:xlink="http://www.w3.org/1999/xlink">
 <defs>
  <style type="text/css">
   <![CDATA[
    .fil1 {fill:white}
    .fil0 {fill:#B2B3B3;fill-rule:nonzero}
   ]]>
  </style>
 </defs>
 <g id="Layer_x0020_1">
  <metadata id="CorelCorpID_0Corel-Layer"/>
  <path class="fil0" d="M2963.06 1481.54c0,818.23 -663.3,1481.52 -1481.53,1481.52 -818.23,0 -1481.53,-663.3 -1481.53,-1481.52 0,-818.23 663.3,-1481.54 1481.53,-1481.54 818.23,0 1481.53,663.3 1481.53,1481.54z"/>
  <path class="fil1" d="M2366.9 1028.17c13.45,-44.82 0,-77.78 -63.99,-77.78l-211.61 0c-53.81,0 -78.6,28.46 -92.05,59.85 0,0 -107.62,262.29 -260.07,432.67 -49.3,49.32 -71.72,65.03 -98.65,65.03 -13.43,0 -32.9,-15.71 -32.9,-60.53l0 -419.24c0,-53.79 -15.63,-77.78 -60.47,-77.78l-332.52 0c-33.62,0 -53.85,24.98 -53.85,48.65 0,51 76.23,62.78 84.09,206.25l0 311.59c0,68.33 -12.34,80.74 -39.25,80.74 -71.72,0 -246.24,-263.48 -349.72,-564.96 -20.29,-58.6 -40.62,-82.27 -94.69,-82.27l-211.62 0c-60.46,0 -72.54,28.46 -72.54,59.85 0,56.04 71.73,334.03 334.02,701.69 174.86,251.07 421.22,387.18 645.4,387.18 134.51,0 151.16,-30.24 151.16,-82.3l0 -189.75c0,-60.49 12.73,-72.53 55.34,-72.53 31.37,0 85.18,15.67 210.74,136.74 143.47,143.47 167.12,207.84 247.83,207.84l211.61 0c60.44,0 90.66,-30.24 73.24,-89.88 -19.1,-59.46 -87.6,-145.72 -178.48,-247.98 -49.33,-58.29 -123.33,-121.05 -145.73,-152.46 -31.38,-40.33 -22.42,-58.27 0,-94.14 0,0 257.83,-363.18 284.72,-486.48z"/>
 </g>
</svg>
